<?xml version="1.0" encoding="UTF-8"?>
<svg xmlns="http://www.w3.org/2000/svg" xmlns:xlink="http://www.w3.org/1999/xlink" xml:space="preserve" width="140px" height="35px" style="shape-rendering:geometricPrecision; text-rendering:geometricPrecision; image-rendering:optimizeQuality; fill-rule:evenodd; clip-rule:evenodd" viewBox="0 0 140 35"> <defs> <style type="text/css"> .fil0 {fill:none} .fil1 {fill:#fc440c} </style> </defs> <g id="Layer_x0020_1"> <metadata id="CorelCorpID_0Corel-Layer"></metadata> <rect class="fil0" width="140" height="35"></rect> <g id="_2186364187904"> <path class="fil1" d="M103.94 15.33c0,-2.38 1.38,-4.19 3.99,-4.19 1.94,0 3.78,1.84 3.78,3.78 0,1.29 -0.21,2.43 -1.2,3.3 -0.34,0.3 -0.68,0.52 -1.12,0.73 -2.37,1.12 -5.45,-0.44 -5.45,-3.62zm-4.8 -0.71c0,1.71 0.01,2.71 0.79,4.32 0.17,0.36 0.46,0.8 0.7,1.13 0.19,0.28 0.22,0.27 0.42,0.5 0.2,0.24 0.22,0.34 0.46,0.56 0.68,0.64 1.41,1.1 2.26,1.52 1.77,0.9 4.16,1.07 6.02,0.17 0.92,-0.45 1.25,-0.94 1.71,-1.26 0,3.8 -4.41,4.55 -7.08,3 -1.21,-0.7 -1,-1.29 -2.32,0.68 -1.06,1.59 -1.56,1.74 0,2.86 3.03,2.18 8.17,2.33 11.27,-0.27 0.18,-0.15 0.17,-0.12 0.35,-0.27 0.23,-0.19 0.32,-0.38 0.52,-0.6 1.44,-1.65 2.06,-3.68 2.06,-6.72l0 -12.47c0,-0.37 -0.08,-0.57 -0.2,-0.82 -0.91,-0.21 -2.02,-0.1 -2.96,-0.1 -0.52,0 -0.62,0.25 -0.76,0.67 -0.12,0.37 -0.34,0.85 -0.37,1.17 -0.91,-0.24 -1.34,-2.04 -5.11,-2.04 -3.92,0 -7.76,4.05 -7.76,7.97z"></path> <path class="fil1" d="M27.01 23.61c2.93,0 2.09,0.64 4.3,-4.89 0.15,-0.37 0.54,-1.55 0.81,-1.75 0.16,0.69 1.7,4.41 2.08,5.37 0.59,1.47 0.35,1.27 3.03,1.27 0.81,0 1.01,-0.95 1.26,-1.59l2.56 -6.34c0.57,-1.42 1.13,-2.77 1.68,-4.14 0.26,-0.65 1.65,-3.89 1.65,-4.28 0,-0.24 -0.17,-0.41 -0.41,-0.41l-3.78 0c-0.79,0 -0.95,0.97 -1.29,1.98l-2.59 7.52c-0.3,-0.21 -0.25,-0.33 -0.53,-1l-1.49 -3.42c-0.23,-0.52 0,-0.68 0.19,-1.18 0.24,-0.68 1.31,-3.24 1.31,-3.59 0,-0.13 -0.21,-0.31 -0.4,-0.31l-3.99 0c-0.6,0 -0.89,1.41 -1.11,2.06l-2.36 7.44 -0.25 -0.57c-0.08,-0.25 -0.12,-0.36 -0.2,-0.61l-1.17 -3.73c-0.26,-0.84 -0.59,-1.66 -0.81,-2.46 -0.74,-2.66 -0.38,-2.13 -5.03,-2.13 -1.16,0 -0.49,1.31 -0.24,1.88 0.88,1.95 1.75,4.53 2.66,6.63 1.06,2.45 2.06,5.31 3.09,7.64 0.2,0.43 0.41,0.61 1.03,0.61z"></path> <path class="fil1" d="M68.59 19.32c-3.96,0 -5.19,-4.4 -2.96,-6.95 2.03,-2.33 6.51,-1.19 6.71,2.78 0.1,2.1 -1.71,4.17 -3.75,4.17zm-8.89 -4.09c0,0.68 0.18,1.93 0.35,2.51 0.2,0.71 0.55,1.53 0.9,2.07 2.23,3.47 6.64,5.11 9.99,3.39 0.71,-0.36 1.11,-0.81 1.74,-1.23 0.06,0.3 0.28,0.78 0.4,1.03 0.17,0.34 0.33,0.61 0.82,0.61 1.24,0 3.48,0.28 3.48,-0.51l0 -15.84c0,-0.31 -0.3,-0.41 -0.62,-0.41 -4.27,0 -2.77,-0.36 -3.88,1.94 -0.71,-0.47 -1.75,-2.14 -4.7,-2.14 -4.8,0 -8.48,4.05 -8.48,8.58z"></path> <path class="fil1" d="M84.94 9c-0.66,-0.48 -0.06,-2.15 -1.43,-2.15 -0.95,0 -2.06,-0.11 -2.97,0.1 -0.26,1.12 -0.1,13.91 -0.1,16.15 0,0.33 0.37,0.51 0.72,0.51l3.37 0c0.56,0 0.95,-0.44 1.01,-0.93 0.06,-0.48 0.01,-1.4 0.01,-1.93 0,-1.4 -0.16,-6.66 0.19,-7.58 0.81,-2.17 4.19,-2.4 5.2,-0.26 0.43,0.94 0.33,1.93 0.33,3.24 0,2.38 0,4.77 0,7.15 0.22,0.15 0.34,0.31 0.72,0.31l3.47 0c0.61,0 0.82,-0.42 0.82,-1.02l0 -7.67c0,-2.66 -0.29,-4.22 -1.46,-5.79 -0.51,-0.69 -1.13,-1.29 -1.9,-1.68 -2.41,-1.25 -4.96,-1.03 -7.11,0.58 -0.35,0.27 -0.76,0.53 -0.87,0.97z"></path> <path class="fil1" d="M127.03 10.73c1.89,0 2.64,0.97 3.37,2.35l-6.43 0c0.08,-0.35 0.23,-0.6 0.45,-0.87 0.61,-0.82 1.45,-1.48 2.61,-1.48zm-8.27 4.5c0,2.96 1.32,5.03 3.3,6.71 2.97,2.53 7.71,2.61 11.06,-0.01 1.18,-0.93 0.92,-0.83 -0.27,-2.51 -0.33,-0.47 -0.7,-1.07 -1.12,-1.43 -1.45,0.34 -0.82,1.63 -4.7,1.63 -0.83,0 -1.74,-0.46 -2.17,-0.89 -0.99,-0.96 -0.66,-0.74 -1.2,-1.87l9.5 0.01c1.93,-0.02 1.84,-0.86 1.84,-2.15 0,-3.24 -2.01,-6.26 -4.86,-7.4 -0.96,-0.39 -2.27,-0.76 -3.44,-0.6 -2.46,0.33 -3.61,0.55 -5.62,2.56 -1.21,1.2 -2.32,3.56 -2.32,5.95z"></path> <path class="fil1" d="M50.51 8.89c-0.04,-0.4 -0.27,-0.9 -0.41,-1.22 -0.49,-1.11 -0.83,-0.82 -3.27,-0.82 -0.32,0 -0.61,0.1 -0.61,0.41l0 15.84c0,0.24 0.27,0.51 0.51,0.51 1.11,0 3.44,0.12 4.39,-0.1 0.6,-1.26 -0.2,-9.51 0.41,-10.84 0.83,-1.83 3.21,-1.88 4.54,-0.96 0.46,0.32 0.68,0.72 1.28,0.86 0.48,-0.32 0.83,-0.96 1.2,-1.46 1.2,-1.6 1.42,-1.81 0.47,-2.55 -1.82,-1.44 -4.65,-2.83 -6.84,-1.16 -0.97,0.75 -1.25,1.38 -1.67,1.49z"></path> <path class="fil1" d="M10.56 11.04c0,1.78 1.57,3.84 2.48,5.49l1.98 3.43c0.68,1.26 1.21,2.26 2.43,2.99 1.49,0.91 3.23,0.85 4.76,0.05 -0.09,-0.36 -0.35,-0.69 -0.54,-1.01l-1.71 -2.98c-2,-3.69 -5.05,-8.48 -6.95,-12.06 -0.57,0.16 -1.39,1.07 -1.69,1.58 -0.38,0.63 -0.76,1.55 -0.76,2.51z"></path> <path class="fil1" d="M3 23c3.65,1.93 7.05,-1.02 7.05,-3.68 0,-1.56 -0.27,-2.82 -1.51,-3.91 -0.26,-0.23 -0.59,-0.51 -0.94,-0.59 -0.1,0.43 -0.32,0.66 -0.51,1.02 -0.19,0.34 -0.39,0.69 -0.6,1.05l-3.49 6.11z"></path> </g> </g> </svg>
